<svg xmlns="http://www.w3.org/2000/svg" width="32" height="32" viewBox="0 0 32 32" fill="none">
<rect width="32" height="32" rx="16" fill="#F5F8FF"/>
<path d="M19.6987 8.00333L17.7799 8C15.6242 8 14.231 9.54552 14.231 11.9376V13.7531H12.3017C12.135 13.7531 12 13.8993 12 14.0795V16.71C12 16.8903 12.1352 17.0363 12.3017 17.0363H14.231V23.6738C14.231 23.854 14.366 24 14.5327 24H16.6983C16.865 24 17 23.8539 17 23.6738V17.0363H19.6075C19.7742 17.0363 19.9092 16.8903 19.9092 16.71L19.9101 14.0795C19.9101 13.993 19.8782 13.9101 19.8217 13.8488C19.7652 13.7876 19.6883 13.7531 19.6082 13.7531H17V12.2141C17 11.4744 17.5147 11.0989 18.4058 11.0989L19.6984 11.0984C19.865 11.0984 20 10.9522 20 10.7721V8.32958C20 8.14964 19.8652 8.00366 19.6987 8.00333Z" fill="black"/>
</svg>