<svg xmlns="http://www.w3.org/2000/svg" width="32" height="32" viewBox="0 0 32 32" fill="none">
<rect width="32" height="32" rx="16" fill="#F5F8FF"/>
<path d="M18.8926 8.5H12.3573C10.2304 8.5 8.5 10.2304 8.5 12.3573V18.8928C8.5 21.0196 10.2304 22.75 12.3573 22.75H18.8928C21.0196 22.75 22.75 21.0196 22.75 18.8928V12.3573C22.75 10.2304 21.0196 8.5 18.8926 8.5V8.5ZM15.625 19.5214C13.4765 19.5214 11.7286 17.7735 11.7286 15.625C11.7286 13.4765 13.4765 11.7286 15.625 11.7286C17.7735 11.7286 19.5214 13.4765 19.5214 15.625C19.5214 17.7735 17.7735 19.5214 15.625 19.5214ZM19.6145 12.6475C18.9796 12.6475 18.4632 12.1311 18.4632 11.4962C18.4632 10.8613 18.9796 10.3447 19.6145 10.3447C20.2495 10.3447 20.766 10.8613 20.766 11.4962C20.766 12.1311 20.2495 12.6475 19.6145 12.6475Z" fill="black"/>
<path d="M15.625 13.0342C14.1964 13.0342 13.0341 14.1964 13.0341 15.6251C13.0341 17.0537 14.1964 18.216 15.625 18.216C17.0536 18.216 18.2159 17.0537 18.2159 15.6251C18.2159 14.1964 17.0536 13.0342 15.625 13.0342Z" fill="black"/>
<path d="M19.6145 11.1802C19.4404 11.1802 19.2986 11.3219 19.2986 11.4961C19.2986 11.6703 19.4404 11.812 19.6145 11.812C19.7888 11.812 19.9306 11.6704 19.9306 11.4961C19.9306 11.3218 19.7888 11.1802 19.6145 11.1802Z" fill="black"/>
</svg>